<svg width="20" height="20" viewBox="0 0 20 20" fill="none" xmlns="http://www.w3.org/2000/svg">
<path d="M10 8.66666V16.6667M10 8.66666C10 6.79982 10 5.8664 9.63669 5.15336C9.31711 4.52615 8.80717 4.01622 8.17997 3.69664C7.46693 3.33333 6.53351 3.33333 4.66667 3.33333H3.83333C3.36662 3.33333 3.13327 3.33333 2.95501 3.42416C2.79821 3.50405 2.67072 3.63153 2.59083 3.78834C2.5 3.9666 2.5 4.19995 2.5 4.66666V13.6667C2.5 14.1334 2.5 14.3667 2.59083 14.545C2.67072 14.7018 2.79821 14.8293 2.95501 14.9092C3.13327 15 3.36662 15 3.83333 15H6.2889C6.73906 15 6.96414 15 7.18178 15.0388C7.37496 15.0732 7.56342 15.1303 7.74326 15.2088C7.94587 15.2972 8.13314 15.4221 8.5077 15.6718L10 16.6667M10 8.66666C10 6.79982 10 5.8664 10.3633 5.15336C10.6829 4.52615 11.1928 4.01622 11.82 3.69664C12.5331 3.33333 13.4665 3.33333 15.3333 3.33333H16.1667C16.6334 3.33333 16.8667 3.33333 17.045 3.42416C17.2018 3.50405 17.3293 3.63153 17.4092 3.78834C17.5 3.9666 17.5 4.19995 17.5 4.66666V13.6667C17.5 14.1334 17.5 14.3667 17.4092 14.545C17.3293 14.7018 17.2018 14.8293 17.045 14.9092C16.8667 15 16.6334 15 16.1667 15H13.7111C13.2609 15 13.0359 15 12.8182 15.0388C12.625 15.0732 12.4366 15.1303 12.2567 15.2088C12.0541 15.2972 11.8669 15.4221 11.4923 15.6718L10 16.6667" stroke="black" stroke-width="0.5" stroke-linecap="round" stroke-linejoin="round"/>
</svg>
