<svg width="20" height="20" viewBox="0 0 20 20" fill="none" xmlns="http://www.w3.org/2000/svg">
<path d="M12.5 2.5V5.33333C12.5 5.80004 12.5 6.0334 12.5908 6.21166C12.6707 6.36846 12.7982 6.49594 12.955 6.57584C13.1333 6.66667 13.3666 6.66667 13.8333 6.66667H16.6667M8.33333 6.66667H5C4.07953 6.66667 3.33333 7.41286 3.33333 8.33333V15.8333C3.33333 16.7538 4.07953 17.5 5 17.5H10C10.9205 17.5 11.6667 16.7538 11.6667 15.8333V13.3333M13.3333 2.5H11C10.0666 2.5 9.59987 2.5 9.24335 2.68166C8.92975 2.84144 8.67478 3.09641 8.51499 3.41002C8.33333 3.76654 8.33333 4.23325 8.33333 5.16667V10.6667C8.33333 11.6001 8.33333 12.0668 8.51499 12.4233C8.67478 12.7369 8.92975 12.9919 9.24335 13.1517C9.59987 13.3333 10.0666 13.3333 11 13.3333H14C14.9334 13.3333 15.4001 13.3333 15.7567 13.1517C16.0703 12.9919 16.3252 12.7369 16.485 12.4233C16.6667 12.0668 16.6667 11.6001 16.6667 10.6667V5.83333L13.3333 2.5Z" stroke="black" stroke-width="0.5" stroke-linejoin="round"/>
</svg>
