<svg width="20" height="20" viewBox="0 0 20 20" fill="none" xmlns="http://www.w3.org/2000/svg">
<path d="M7.08333 10.4167L8.34074 11.6741C8.62721 11.9605 8.77044 12.1038 8.93317 12.1518C9.07614 12.194 9.22912 12.187 9.36767 12.1321C9.52539 12.0695 9.65507 11.9139 9.91442 11.6027L13.3333 7.5M13.6073 3.96546C14.223 3.98303 14.8334 4.22676 15.3033 4.69667C15.7732 5.16657 16.0169 5.777 16.0345 6.39268C16.0519 7.00193 16.0606 7.30656 16.0785 7.37747C16.1167 7.52925 16.0723 7.42188 16.1525 7.55627C16.19 7.61905 16.3993 7.84064 16.8178 8.28371C17.2407 8.73148 17.5 9.33546 17.5 10C17.5 10.6645 17.2407 11.2685 16.8178 11.7163C16.3993 12.1594 16.19 12.381 16.1525 12.4437C16.0723 12.5781 16.1167 12.4708 16.0785 12.6225C16.0606 12.6934 16.0519 12.9981 16.0345 13.6073C16.0169 14.223 15.7732 14.8334 15.3033 15.3033C14.8334 15.7732 14.223 16.017 13.6073 16.0345C12.998 16.0519 12.6934 16.0606 12.6225 16.0785C12.4707 16.1168 12.5781 16.0723 12.4437 16.1526C12.3809 16.1901 12.1594 16.3993 11.7163 16.8178C11.2685 17.2407 10.6645 17.5 10 17.5C9.33547 17.5 8.7315 17.2407 8.28373 16.8178C7.84061 16.3993 7.61906 16.19 7.55628 16.1526C7.42188 16.0723 7.52925 16.1168 7.37747 16.0785C7.30657 16.0606 7.00187 16.0519 6.39267 16.0345C5.77698 16.017 5.16655 15.7732 4.69664 15.3033C4.22673 14.8334 3.98299 14.223 3.96543 13.6073C3.94805 12.998 3.93936 12.6934 3.92148 12.6225C3.88321 12.4707 3.92768 12.5781 3.84742 12.4437C3.80993 12.3809 3.60068 12.1594 3.18218 11.7163C2.75927 11.2685 2.5 10.6645 2.5 10C2.5 9.33547 2.75927 8.73151 3.18218 8.28373C3.60068 7.84063 3.80993 7.61908 3.84742 7.55629C3.92768 7.4219 3.88321 7.52927 3.92148 7.37749C3.93936 7.30659 3.94805 7.00196 3.96543 6.39271C3.98299 5.77702 4.22673 5.16658 4.69664 4.69667C5.16655 4.22676 5.77698 3.98302 6.39267 3.96546C7.00193 3.94808 7.30656 3.93939 7.37747 3.92151C7.52925 3.88323 7.42188 3.92771 7.55627 3.84745C7.61905 3.80996 7.84063 3.60068 8.28373 3.18219C8.7315 2.75928 9.33547 2.5 10 2.5C10.6645 2.5 11.2685 2.75928 11.7163 3.1822C12.1594 3.6007 12.3809 3.80995 12.4437 3.84744C12.5781 3.9277 12.4707 3.88323 12.6225 3.9215C12.6934 3.93939 12.998 3.94808 13.6073 3.96546Z" stroke="black" stroke-width="0.5" stroke-linecap="round" stroke-linejoin="round"/>
</svg>
