<svg width="20" height="20" viewBox="0 0 20 20" fill="none" xmlns="http://www.w3.org/2000/svg">
<path d="M4 10L16 10M10 4L10 16M5.65 16H14.35C15.1901 16 15.6101 16 15.931 15.8365C16.2132 15.6927 16.4427 15.4632 16.5865 15.181C16.75 14.8601 16.75 14.4401 16.75 13.6V6.4C16.75 5.55992 16.75 5.13988 16.5865 4.81901C16.4427 4.53677 16.2132 4.3073 15.931 4.16349C15.6101 4 15.1901 4 14.35 4H5.65C4.80992 4 4.38988 4 4.06901 4.16349C3.78677 4.3073 3.5573 4.53677 3.41349 4.81901C3.25 5.13988 3.25 5.55992 3.25 6.4V13.6C3.25 14.4401 3.25 14.8601 3.41349 15.181C3.5573 15.4632 3.78677 15.6927 4.06901 15.8365C4.38988 16 4.80992 16 5.65 16Z" stroke="" stroke-width="2" stroke-linecap="round" stroke-linejoin="round"/>
</svg>
