<svg width="48" height="24" viewBox="0 0 48 24" fill="none" xmlns="http://www.w3.org/2000/svg">
    <rect width="48" height="24" rx="12" fill="#F5F5F6"/>
    <circle cx="12" cy="12" r="10" fill="#FFD371"/>
    <g clip-path="url(#clip0_4_121)">
        <path d="M12 8.76562C11.8632 8.76562 11.7321 8.7113 11.6354 8.6146C11.5387 8.5179 11.4844 8.38675 11.4844 8.25V7.125C11.4844 6.98825 11.5387 6.8571 11.6354 6.7604C11.7321 6.6637 11.8632 6.60938 12 6.60938C12.1368 6.60938 12.2679 6.6637 12.3646 6.7604C12.4613 6.8571 12.5156 6.98825 12.5156 7.125V8.25C12.5156 8.38675 12.4613 8.5179 12.3646 8.6146C12.2679 8.7113 12.1368 8.76562 12 8.76562Z" fill="#997F44"/>
        <path d="M12 17.3906C11.8632 17.3906 11.7321 17.3363 11.6354 17.2396C11.5387 17.1429 11.4844 17.0118 11.4844 16.875V15.75C11.4844 15.6132 11.5387 15.4821 11.6354 15.3854C11.7321 15.2887 11.8632 15.2344 12 15.2344C12.1368 15.2344 12.2679 15.2887 12.3646 15.3854C12.4613 15.4821 12.5156 15.6132 12.5156 15.75V16.875C12.5156 17.0118 12.4613 17.1429 12.3646 17.2396C12.2679 17.3363 12.1368 17.3906 12 17.3906Z" fill="#997F44"/>
        <path d="M14.6517 9.86391C14.5498 9.8639 14.4501 9.83366 14.3653 9.77702C14.2806 9.72037 14.2145 9.63987 14.1754 9.54568C14.1364 9.45149 14.1262 9.34784 14.146 9.24783C14.1659 9.14783 14.215 9.05596 14.287 8.98384L15.0825 8.18837C15.1796 8.09377 15.3101 8.04123 15.4457 8.04213C15.5812 8.04302 15.711 8.09727 15.8069 8.19314C15.9028 8.289 15.957 8.41877 15.9579 8.55434C15.9588 8.68992 15.9062 8.82039 15.8117 8.91751L15.0162 9.71298C14.9684 9.7609 14.9116 9.7989 14.849 9.8248C14.7865 9.8507 14.7194 9.864 14.6517 9.86391V9.86391Z" fill="#997F44"/>
        <path d="M8.55282 15.9628C8.45084 15.9628 8.35115 15.9325 8.26636 15.8759C8.18157 15.8192 8.11549 15.7386 8.07648 15.6444C8.03747 15.5502 8.02727 15.4465 8.04719 15.3465C8.06711 15.2465 8.11624 15.1546 8.18837 15.0825L8.98384 14.287C9.03148 14.2381 9.08837 14.1991 9.15119 14.1724C9.21402 14.1456 9.28153 14.1316 9.34982 14.1312C9.4181 14.1307 9.48579 14.1438 9.54896 14.1698C9.61214 14.1957 9.66953 14.2339 9.71781 14.2822C9.7661 14.3305 9.80431 14.3879 9.83023 14.451C9.85616 14.5142 9.86928 14.5819 9.86883 14.6502C9.86838 14.7185 9.85437 14.786 9.82762 14.8488C9.80086 14.9116 9.7619 14.9685 9.71298 15.0162L8.91751 15.8116C8.86968 15.8596 8.81284 15.8977 8.75025 15.9236C8.68767 15.9496 8.62057 15.9629 8.55282 15.9628V15.9628Z" fill="#997F44"/>
        <path d="M16.875 12.5156H15.75C15.6132 12.5156 15.4821 12.4613 15.3854 12.3646C15.2887 12.2679 15.2344 12.1368 15.2344 12C15.2344 11.8632 15.2887 11.7321 15.3854 11.6354C15.4821 11.5387 15.6132 11.4844 15.75 11.4844H16.875C17.0118 11.4844 17.1429 11.5387 17.2396 11.6354C17.3363 11.7321 17.3906 11.8632 17.3906 12C17.3906 12.1368 17.3363 12.2679 17.2396 12.3646C17.1429 12.4613 17.0118 12.5156 16.875 12.5156Z" fill="#997F44"/>
        <path d="M8.25 12.5156H7.125C6.98825 12.5156 6.8571 12.4613 6.7604 12.3646C6.6637 12.2679 6.60938 12.1368 6.60938 12C6.60938 11.8632 6.6637 11.7321 6.7604 11.6354C6.8571 11.5387 6.98825 11.4844 7.125 11.4844H8.25C8.38675 11.4844 8.5179 11.5387 8.6146 11.6354C8.7113 11.7321 8.76562 11.8632 8.76562 12C8.76562 12.1368 8.7113 12.2679 8.6146 12.3646C8.5179 12.4613 8.38675 12.5156 8.25 12.5156Z" fill="#997F44"/>
        <path d="M15.4472 15.9628C15.3794 15.9629 15.3123 15.9496 15.2498 15.9236C15.1872 15.8977 15.1303 15.8596 15.0825 15.8116L14.287 15.0162C14.1924 14.919 14.1399 14.7886 14.1408 14.653C14.1417 14.5174 14.1959 14.3877 14.2918 14.2918C14.3877 14.1959 14.5174 14.1417 14.653 14.1408C14.7886 14.1399 14.9191 14.1924 15.0162 14.287L15.8116 15.0825C15.8838 15.1546 15.9329 15.2465 15.9528 15.3465C15.9727 15.4465 15.9625 15.5502 15.9235 15.6444C15.8845 15.7387 15.8184 15.8192 15.7337 15.8759C15.6489 15.9325 15.5492 15.9628 15.4472 15.9628V15.9628Z" fill="#997F44"/>
        <path d="M9.34829 9.86391C9.28059 9.86405 9.21353 9.85078 9.15098 9.82487C9.08843 9.79897 9.03162 9.76094 8.98384 9.71298L8.18837 8.91751C8.09377 8.82039 8.04123 8.68992 8.04213 8.55434C8.04302 8.41877 8.09727 8.289 8.19314 8.19314C8.289 8.09727 8.41877 8.04302 8.55434 8.04213C8.68992 8.04123 8.82039 8.09377 8.91751 8.18837L9.71298 8.98384C9.78504 9.05596 9.83411 9.14783 9.85397 9.24783C9.87383 9.34784 9.8636 9.45149 9.82457 9.54568C9.78554 9.63987 9.71946 9.72037 9.63469 9.77702C9.54991 9.83366 9.45025 9.8639 9.34829 9.86391V9.86391Z" fill="#997F44"/>
        <path d="M12 14.3906C11.5272 14.3906 11.065 14.2504 10.6718 13.9877C10.2787 13.725 9.97229 13.3517 9.79135 12.9149C9.61041 12.478 9.56307 11.9973 9.65531 11.5336C9.74755 11.0699 9.97524 10.6439 10.3096 10.3096C10.6439 9.97524 11.0699 9.74755 11.5336 9.65531C11.9973 9.56307 12.478 9.61041 12.9149 9.79135C13.3517 9.97229 13.725 10.2787 13.9877 10.6718C14.2504 11.065 14.3906 11.5272 14.3906 12C14.3899 12.6338 14.1378 13.2414 13.6896 13.6896C13.2414 14.1378 12.6338 14.3899 12 14.3906V14.3906Z" fill="#997F44"/>
    </g>
    <g clip-path="url(#clip1_4_121)">
        <path d="M36.1875 17.25C34.7454 17.25 33.3623 16.6771 32.3426 15.6574C31.3229 14.6377 30.75 13.2546 30.75 11.8125C30.75 9.60937 32.0156 7.63406 33.9752 6.78117C34.0443 6.75107 34.1208 6.74247 34.1948 6.75649C34.2689 6.77051 34.337 6.8065 34.3902 6.85977C34.4435 6.91305 34.4795 6.98113 34.4935 7.05515C34.5075 7.12917 34.4989 7.2057 34.4688 7.27476C34.2438 7.79133 34.125 8.45297 34.125 9.1875C34.125 11.7722 36.2278 13.875 38.8125 13.875C39.547 13.875 40.2087 13.7562 40.7252 13.5312C40.7943 13.5011 40.8708 13.4925 40.9448 13.5065C41.0189 13.5205 41.087 13.5565 41.1402 13.6098C41.1935 13.663 41.2295 13.7311 41.2435 13.8051C41.2575 13.8792 41.2489 13.9557 41.2188 14.0248C40.3659 15.9844 38.3906 17.25 36.1875 17.25Z" fill="#B1B0B5"/>
    </g>
    <defs>
        <clipPath id="clip0_4_121">
            <rect width="12" height="12" fill="white" transform="translate(6 6)"/>
        </clipPath>
        <clipPath id="clip1_4_121">
            <rect width="12" height="12" fill="white" transform="translate(30 6)"/>
        </clipPath>
    </defs>
</svg>
